<svg viewBox="0 0 891 891" fill="none" xmlns="http://www.w3.org/2000/svg">
<title>SailPlot</title>
<rect width="891" height="891" rx="54" transform="matrix(-1 0 0 1 891 0)" fill="#CBCBCB"/>
<path d="M645.704 454.339C645.581 454.713 645.362 455.1 645.081 455.495C644.695 456.038 644.157 456.636 643.488 457.282C642.149 458.576 640.238 460.104 637.826 461.829C632.999 465.28 626.113 469.556 617.648 474.375C600.715 484.015 577.42 495.85 551.53 507.645C499.766 531.228 437.548 554.687 395.014 560.088C310.071 570.873 157.33 571.605 141.662 571.679C133.762 571.716 129.493 569.932 127.153 567.35C124.825 564.782 124.516 561.529 124.261 558.962L113.771 453.113C113.516 450.546 113.181 447.295 114.959 444.32C116.747 441.329 120.584 438.742 128.336 437.228C143.715 434.225 293.627 404.96 379.034 398.862C421.801 395.808 487.414 406.598 542.8 419.561C570.502 426.045 595.666 433.077 614.163 439.205C623.409 442.269 631 445.11 636.41 447.547C639.114 448.765 641.287 449.888 642.855 450.893C643.638 451.396 644.282 451.877 644.768 452.333C645.121 452.665 645.411 453.002 645.605 453.344L645.888 453.316L645.816 453.826L645.987 454.311L645.704 454.339Z" fill="#4E4E4E"/>
<path d="M253.171 84.6779C253.492 84.4498 253.897 84.2662 254.358 84.1146C254.992 83.9061 255.78 83.7424 256.703 83.618C258.55 83.3691 260.996 83.2699 263.963 83.3093C269.902 83.3881 277.989 84.0227 287.672 85.1557C307.042 87.4221 332.842 91.6891 360.712 97.5279C416.434 109.202 480.512 127.175 518.011 148.038C592.899 189.703 716.494 279.669 729.173 288.899C735.564 293.552 737.95 297.522 738.306 300.991C738.66 304.442 736.981 307.249 735.664 309.47L681.368 401.04C680.051 403.261 678.393 406.081 675.196 407.426C671.981 408.778 667.353 408.589 660.204 405.214C646.023 398.518 507.792 333.234 435.308 287.515C399.013 264.621 352.503 217.022 315.527 173.731C297.034 152.079 280.913 131.488 269.632 115.58C263.993 107.628 259.556 100.837 256.638 95.6639C255.18 93.0793 254.093 90.8852 253.425 89.1452C253.092 88.2755 252.857 87.5057 252.736 86.8496C252.648 86.3724 252.615 85.9287 252.661 85.5381L252.417 85.3932L252.777 85.0253L252.927 84.533L253.171 84.6779Z" fill="#2E2E2E"/>
<path d="M742.365 521.005C742.401 521.368 742.365 521.776 742.28 522.211C742.159 522.822 741.932 523.536 741.612 524.342C740.972 525.954 739.938 527.983 738.554 530.37C735.786 535.146 731.59 541.41 726.264 548.738C715.609 563.399 700.406 582.358 682.988 602.278C648.164 642.104 604.43 685.835 570.453 706.718C502.607 748.419 373.456 807.588 360.208 813.656C353.525 816.717 349.211 816.846 346.225 815.55C343.256 814.261 341.742 811.612 340.543 809.535L291.08 723.863C289.881 721.786 288.344 719.15 288.712 715.935C289.082 712.701 291.351 709.029 297.344 704.772C309.223 696.333 425.04 614.07 495.077 576.163C530.152 557.18 589.89 541.171 641.793 530.926C667.753 525.801 691.773 522.114 709.797 520.217C718.807 519.269 726.33 518.767 731.85 518.758C734.609 518.753 736.883 518.872 738.599 519.124C739.457 519.249 740.189 519.409 740.779 519.611C741.198 519.754 741.569 519.927 741.865 520.139L742.114 519.996L742.258 520.49L742.614 520.862L742.365 521.005Z" fill="#FFAA00"/>
</svg>
